<?xml version="1.0" encoding="utf-8"?>
<!-- Generator: Adobe Illustrator 26.4.1, SVG Export Plug-In . SVG Version: 6.00 Build 0)  -->
<svg version="1.1" id="Слой_1" xmlns="http://www.w3.org/2000/svg" xmlns:xlink="http://www.w3.org/1999/xlink" x="0px" y="0px"
	 viewBox="0 0 100 100" style="enable-background:new 0 0 100 100;" xml:space="preserve">
<style type="text/css">
	.st0{fill-rule:evenodd;clip-rule:evenodd;fill:#FFFFFF;}
</style>
<path class="st0" d="M50,100c27.6,0,50-22.4,50-50S77.6,0,50,0S0,22.4,0,50S22.4,100,50,100z M57.4,29c3.9,0.7,7.7,1.9,11.2,3.5
	c0,0,0.1,0,0.1,0.1c6.2,9.2,9.3,19.5,8.1,31.4c0,0.1,0,0.1-0.1,0.1c-4.7,3.5-9.3,5.6-13.8,7c-0.1,0-0.1,0-0.2-0.1
	c-1-1.5-2-3-2.8-4.6c0-0.1,0-0.2,0.1-0.2c1.5-0.6,2.9-1.2,4.3-2.1c0.1-0.1,0.1-0.2,0-0.3c-0.3-0.2-0.6-0.4-0.9-0.7
	c-0.1,0-0.1-0.1-0.2,0c-8.9,4.1-18.6,4.1-27.6,0c-0.1,0-0.1,0-0.2,0c-0.3,0.2-0.6,0.5-0.9,0.7c-0.1,0.1-0.1,0.2,0,0.3
	c1.4,0.8,2.8,1.5,4.3,2.1c0.1,0,0.1,0.1,0.1,0.2c-0.8,1.6-1.8,3.1-2.8,4.6c0,0.1-0.1,0.1-0.2,0.1c-4.5-1.4-9-3.5-13.7-7
	c0,0-0.1-0.1-0.1-0.1c-1-10.3,1-20.7,8.1-31.4c0,0,0-0.1,0.1-0.1c3.5-1.6,7.3-2.8,11.2-3.5c0.1,0,0.1,0,0.2,0.1c0.5,0.9,1,2,1.4,2.9
	c4.1-0.6,8.3-0.6,12.6,0c0.4-0.9,0.9-2,1.4-2.9C57.2,29,57.3,29,57.4,29z M35.4,52.1c0,3.1,2.2,5.6,4.9,5.6c2.8,0,4.9-2.5,4.9-5.6
	c0-3-2.2-5.6-4.9-5.6C37.6,46.6,35.4,49.1,35.4,52.1z M53.7,52.1c0,3.1,2.2,5.6,4.9,5.6c2.8,0,4.9-2.5,4.9-5.6c0-3-2.2-5.6-4.9-5.6
	C55.9,46.6,53.7,49.1,53.7,52.1z"/>
</svg>
