<?xml version="1.0" encoding="utf-8"?>
<!-- Generator: Adobe Illustrator 26.4.1, SVG Export Plug-In . SVG Version: 6.00 Build 0)  -->
<svg version="1.1" id="Слой_1" xmlns="http://www.w3.org/2000/svg" xmlns:xlink="http://www.w3.org/1999/xlink" x="0px" y="0px"
	 viewBox="0 0 100 100" style="enable-background:new 0 0 100 100;" xml:space="preserve">
<style type="text/css">
	.st0{fill-rule:evenodd;clip-rule:evenodd;fill:#FFFFFF;}
</style>
<path class="st0" d="M29.2,0.8c-5.6,0.6-7.9,1-10.6,1.7C15.2,3.2,12,4.6,9.9,6c-3,2-5.3,5.2-6.6,9.1C2.3,17.9,2,19.8,1.1,26.6
	l-0.6,4.7l0,9.3l0,9.3l0.4-0.1c0.2,0,1.7-0.1,3.3-0.2c9.2-0.4,13.8-0.8,19.6-1.8c7.1-1.2,11.7-2.9,15.3-5.7c1.3-1,3.3-3.1,4.3-4.5
	c1-1.4,2.6-4.5,3.2-6.4c1.6-4.5,2-8,2.9-22.8C49.8,4.9,50,1.7,50,1.3l0.1-0.8l-9.5,0C32.2,0.5,30.9,0.6,29.2,0.8z M51,0.7
	c0,0.5,0.5,9.4,0.7,11.8c0.6,8.9,1.6,15.2,3.1,19.3c1,2.9,2.7,5.8,4.7,8c2.3,2.6,5.7,4.9,9.3,6.3c4.1,1.5,8.7,2.2,20.1,2.9
	c3.5,0.2,6.1,0.4,10.4,0.7l1,0.1l0.1-2c0.1-3.2,0-14.1-0.2-16.7c-0.3-3.2-0.7-7-1.2-10.2c-0.7-4.3-1.1-6-2.4-8.5
	c-2.4-4.8-6.7-8.1-12.7-9.7c-2.1-0.6-4.4-0.9-9.7-1.4c-1.3-0.1-2.9-0.4-3.6-0.5c-1.2-0.2-1.8-0.2-10.4-0.2C51.6,0.5,51,0.5,51,0.7z
	 M0.5,59.8v8.8L1,73c0.9,7.1,1.3,9.7,2.2,12.3c1.6,4.9,4.3,8.3,8.2,10.5c1.5,0.9,3.3,1.5,6.3,2.3c3.8,0.9,5.9,1.3,9.5,1.5
	c5.9,0.4,22.2,1,22.3,0.9c0,0,0.1-2.5,0.1-5.5c0-4.8,0-5.8-0.3-8.4c-0.8-8.6-1.6-13.3-2.8-16.9c-2.7-8.2-8.6-13.7-17-15.9
	c-3.3-0.9-7.4-1.4-16.4-1.9c-5.6-0.4-7.5-0.5-9.9-0.7c-1-0.1-2-0.2-2.3-0.2l-0.4,0V59.8z M99.1,51.1c-0.3,0-1.8,0.1-3.3,0.2
	c-1.5,0.1-4.5,0.3-6.6,0.4c-12.1,0.7-16.8,1.4-20.8,3c-8.2,3.3-13,9.6-15,19.4c-0.6,3.2-1,6.2-1.5,12.7c-0.3,3.9-0.4,5-0.4,8.9v4.5
	l8.6-0.1c8.4-0.1,10.1-0.1,14-0.5c4.6-0.4,9.4-1.4,12.2-2.3c5.5-1.9,9.4-5.8,11.3-11.3c0.8-2.3,1.7-6.6,2.2-10.5
	c0.6-4.8,0.7-8.4,0.7-17.3l0-7.2l-0.4,0C99.9,51.1,99.4,51.1,99.1,51.1z"/>
</svg>
