<?xml version="1.0" encoding="utf-8"?>
<!-- Generator: Adobe Illustrator 26.4.1, SVG Export Plug-In . SVG Version: 6.00 Build 0)  -->
<svg version="1.1" id="Слой_1" xmlns="http://www.w3.org/2000/svg" xmlns:xlink="http://www.w3.org/1999/xlink" x="0px" y="0px"
	 viewBox="0 0 100 100" style="enable-background:new 0 0 100 100;" xml:space="preserve">
<style type="text/css">
	.st0{fill-rule:evenodd;clip-rule:evenodd;fill:#FFFFFF;}
</style>
<path class="st0" d="M50,100c27.6,0,50-22.4,50-50S77.6,0,50,0S0,22.4,0,50S22.4,100,50,100z M72,31.9c0.4-4.4-4.2-2.6-4.2-2.6
	c-3.4,1.4-6.9,2.9-10.5,4.3c-11,4.5-22.4,9.2-32.2,13.7c-5.3,1.9-2.2,3.9-2.2,3.9l8.4,2.6c3.9,1.2,5.9-0.1,5.9-0.1l18-12.2
	c6.4-4.4,4.9-0.8,3.3,0.8L45,55.1c-2.1,1.8-1,3.3-0.1,4.1c2.5,2.2,8.8,6.4,11.6,8.2c0.7,0.5,1.2,0.8,1.3,0.9
	c0.6,0.5,4.1,2.8,6.4,2.3c2.3-0.5,2.6-3.5,2.6-3.5l3.1-20.2c0.5-3.5,1-6.9,1.4-9.6C71.6,34.8,71.9,32.8,72,31.9z"/>
</svg>
