<?xml version="1.0" encoding="utf-8"?>
<!-- Generator: Adobe Illustrator 26.4.1, SVG Export Plug-In . SVG Version: 6.00 Build 0)  -->
<svg version="1.1" id="Слой_1" xmlns="http://www.w3.org/2000/svg" xmlns:xlink="http://www.w3.org/1999/xlink" x="0px" y="0px"
	 viewBox="0 0 100 100" style="enable-background:new 0 0 100 100;" xml:space="preserve">
<style type="text/css">
	.st0{fill-rule:evenodd;clip-rule:evenodd;fill:#FFFFFF;}
</style>
<path class="st0" d="M50,100c27.6,0,50-22.4,50-50S77.6,0,50,0S0,22.4,0,50S22.4,100,50,100z M25,34c0.4,19.5,10.1,31.2,27.2,31.2h1
	V54c6.3,0.6,11,5.2,12.9,11.1H75c-2.4-8.9-8.8-13.8-12.8-15.6c4-2.3,9.6-7.9,11-15.6h-8.1c-1.7,6.2-6.9,11.8-11.9,12.3V34h-8.1v21.6
	c-5-1.2-11.3-7.3-11.6-21.6H25z"/>
</svg>
